<?xml version="1.0" encoding="utf-8"?>
<!-- Generator: Adobe Illustrator 22.0.1, SVG Export Plug-In . SVG Version: 6.00 Build 0)  -->
<svg version="1.1" id="Layer_1" xmlns="http://www.w3.org/2000/svg" xmlns:xlink="http://www.w3.org/1999/xlink" x="0px" y="0px"
	 viewBox="0 0 126.1 145.6" style="enable-background:new 0 0 126.1 145.6;" xml:space="preserve">
<style type="text/css">
	.st0{fill:#FFFFFF;}
	.st1{fill:none;}
</style>
<path class="st0" d="M63.1,0L0,36.4v72.8l63.1,36.4l63.1-36.4V36.4L63.1,0z"/>
<g>
	<g>
		<polygon class="st1" points="40.2,48.5 47.4,60.8 89.7,60.8 89.7,48.5 		"/>
		<polygon class="st1" points="40.2,79.1 40.2,82.7 40.2,101.9 53.8,101.9 53.8,82.7 72.7,82.7 72.7,69.1 40.2,69.1 		"/>
	</g>
	<path class="st1" d="M62.5,137.4l-56-32.3V40.5l56-32.3l56,32.3v64.6L62.5,137.4z M14.7,100.4l47.7,27.6l47.7-27.6V45.2L62.5,17.7
		L14.7,45.2V100.4z"/>
</g>
</svg>
